<svg xmlns="http://www.w3.org/2000/svg" viewBox="0 0 503.81 242.77"><defs><style>.cls-2{fill:#fcbb2f}.cls-3{fill:#906828;mix-blend-mode:multiply}.cls-4{fill:#fbac18}</style></defs><g style="isolation:isolate"><g id="Layer_2" data-name="Layer 2"><g id="Layer_1-2" data-name="Layer 1"><path class="cls-2" d="M401.02 48.03h40.33v88.74h-40.33z"/><path class="cls-3" d="M401.02 66.36v8.43l40.34 55.38-40.34-63.81zm0-18.33l2.94 9.07 37.4-9.07h-40.34z"/><path class="cls-4" d="M395.52 48.03l3.34 5.93 42.5-5.93h-45.84z"/><path class="cls-2" d="M210.71 48.03h40.34v88.74h-40.34z"/><path class="cls-3" d="M210.71 66.36v8.43l40.33 55.38-40.33-63.81zm0-18.33l2.93 9.07 37.4-9.07h-40.33z"/><path class="cls-4" d="M205.21 48.03l3.33 5.93 42.5-5.93h-45.83z"/><path d="M235.38 183.44h54.3L156.62.39l-30.34 62.55 87.58 120.51zm191.4.71h54.3L348 1.1l-30.32 62.54 87.58 120.52z" fill="#dd9c27"/><path class="cls-2" d="M290.11 183.22L383 49.34 347.46 0 214.12 183.47c25.33-.11 75.99-.25 75.99-.25zm-191.4 0l92.93-133.88L156.07 0 22.73 183.47c25.33-.11 75.98-.25 75.98-.25z"/><path class="cls-3" d="M191.64 49.34l-36.86 53.14 40.71-48.4-3.85-4.74zm190.87.55l-36.86 53.14 40.7-48.4-3.84-4.74zm-134.77 75.88l-33.62 57.7 37.66-52.2-4.04-5.5z"/><path d="M22.73 183.47l75.98-.25L156.07 0 22.73 183.47zm191.39 0l75.99-.25L347.46 0 214.12 183.47z" fill="#fff" opacity=".18"/><path d="M18.38 232.87l3.17.71q-2.28 9.18-10.29 9.19A9.55 9.55 0 013 238.51a17.66 17.66 0 01-3-10.45q0-6.42 3.13-10.3a10.23 10.23 0 018.4-3.88q7.8 0 10 8.92l-3.27.65q-1.8-6.63-6.77-6.62a6.43 6.43 0 00-5.71 3.08c-1.34 2.05-2 4.93-2 8.65a14.43 14.43 0 002.07 8.18 6.37 6.37 0 005.49 3.08q5.31 0 7.04-6.95zm41.62 9.9a9.68 9.68 0 01-8.33-4.16 17 17 0 01-3-10.21 16.67 16.67 0 013.14-10.4 10.44 10.44 0 0116.55-.07 16.2 16.2 0 013.11 10.18 17.69 17.69 0 01-3 10.28 9.67 9.67 0 01-8.47 4.38zm.08-2.83a6.35 6.35 0 005.69-3.32 16 16 0 002.06-8.54q0-5.37-2.13-8.37a6.59 6.59 0 00-5.64-3 6.44 6.44 0 00-5.65 3.29 15.32 15.32 0 00-2.09 8.46 14.86 14.86 0 002.11 8.32 6.49 6.49 0 005.65 3.16zm61.61 2.26h-3.37L104 218v1.83c0 .7.06 1.28.06 1.75v20.62h-2.8v-27.75h4.35L119 237.06v-22.61h2.74zm28.45-7.34l3.13-.71q1.89 5.67 8.19 5.67a7.56 7.56 0 005-1.4 4.64 4.64 0 001.67-3.74 3.55 3.55 0 00-1.27-2.86 7.08 7.08 0 00-2.94-1.49l-5.59-1.33a14.2 14.2 0 01-3.53-1.33 6.42 6.42 0 01-2.32-2.41 7.22 7.22 0 01-1-3.73 6.73 6.73 0 012.62-5.55 10.61 10.61 0 016.73-2.06q7.56 0 9.94 6.85l-3.15.93a5.57 5.57 0 00-2.58-3.69 8.15 8.15 0 00-4.33-1.25 7.05 7.05 0 00-4.05 1.21 3.87 3.87 0 00-1.78 3.41c0 2.06 1.5 3.44 4.5 4.17l5.19 1.21q7.13 1.71 7.12 7.67a7.71 7.71 0 01-2.67 6q-2.69 2.38-7.54 2.39-8.57-.05-11.34-7.96zM209 242.2h-3.48v-24.7h-7.94v-3.05H217v3.05h-8zm56.36 0h-3.64l-5.12-12h-8v12h-3.2v-27.75h10.94q4.44 0 6.59 2.43a7.87 7.87 0 012.15 5.31 8.22 8.22 0 01-1.2 4.25 6.68 6.68 0 01-4 2.91zm-16.71-14.84h7.26a5.58 5.58 0 004.28-1.52 5.25 5.25 0 001.41-3.71 4.17 4.17 0 00-1.49-3.41 5.75 5.75 0 00-3.77-1.22h-7.69zm62.28-12.91h2.89v18.12q0 5.46-2.68 7.83a10.15 10.15 0 01-7 2.37c-3.21 0-5.59-.82-7.14-2.44s-2.31-4.22-2.31-7.76v-18.12h3.47v18.13a9.9 9.9 0 00.75 4.55 4.5 4.5 0 002.28 2 8.29 8.29 0 003.19.63 6.59 6.59 0 004.88-1.69q1.67-1.69 1.67-5.45zm50.61 18.42l3.17.71q-2.28 9.18-10.29 9.19a9.55 9.55 0 01-8.26-4.26 17.66 17.66 0 01-3-10.45q0-6.42 3.13-10.3a10.23 10.23 0 018.4-3.88q7.8 0 10 8.92l-3.27.65q-1.8-6.63-6.77-6.62a6.43 6.43 0 00-5.71 3.08c-1.34 2.05-2 4.93-2 8.65a14.43 14.43 0 002.07 8.18 6.37 6.37 0 005.49 3.08q5.31 0 7.04-6.95zM402 242.2h-3.48v-24.7h-7.94v-3.05h19.39v3.05h-8zm54.31-3.05v3h-17.95v-27.7h17.56v3.05h-14.08v8.82H453v2.83h-11.16v10zm46.38-24.7l-7.78 12.7 8.9 15h-3.93l-7-11.83-7.29 11.83h-3.23l8.89-14.36-7.91-13.39h3.88l6.08 10.25 6.23-10.25z" fill="#535260"/></g></g></g></svg>